<?xml version="1.0" encoding="UTF-8"?>
<svg version="1.1" xmlns="http://www.w3.org/2000/svg" width="200" height="200">
<path d="M0 0 C66 0 132 0 200 0 C200 66 200 132 200 200 C134 200 68 200 0 200 C0 134 0 68 0 0 Z " fill="#FDFDFD" transform="translate(0,0)"/>
<path d="M0 0 C7.7747406 0 12.84091784 2.40253245 18.8125 7.3125 C25.81578841 15.91654005 27.97514234 22.83018778 27 34 C26.15621374 36.83718525 25.13546562 39.40010593 23.875 42.07421875 C22.86211207 43.95093585 22.86211207 43.95093585 23 46 C23.886875 46.70125 24.77375 47.4025 25.6875 48.125 C31.704696 52.94729183 35.44654001 59.98894333 36.2890625 67.6171875 C36.78598915 77.68649061 33.74617929 86.45130124 27 94 C24.8515625 95.73046875 24.8515625 95.73046875 22.625 97.1875 C21.89539063 97.67605469 21.16578125 98.16460937 20.4140625 98.66796875 C15.24812672 101.51842846 10.71511745 102.24542835 4.8515625 102.1953125 C4.19417084 102.1924826 3.53677917 102.18965271 2.85946655 102.18673706 C0.78111767 102.17563447 -1.29678366 102.15054986 -3.375 102.125 C-4.79296248 102.11495731 -6.21093179 102.10583373 -7.62890625 102.09765625 C-11.08624429 102.0774379 -14.54262735 102.0382735 -18 102 C-18 97.05 -18 92.1 -18 87 C-15.32390625 86.96132812 -15.32390625 86.96132812 -12.59375 86.921875 C-10.22914285 86.86557483 -7.86456046 86.80822793 -5.5 86.75 C-3.74042969 86.72873047 -3.74042969 86.72873047 -1.9453125 86.70703125 C5.92311421 86.48600803 12.25859846 85.85832034 18 79.9375 C19.59662895 75.24740245 19.85939322 70.88386877 19 66 C16.87083986 61.88069705 14.2326003 59.57696184 10.0625 57.625 C6.73349595 56.94561142 3.3634744 56.48049634 0 56 C0 50.72 0 45.44 0 40 C1.258125 39.62875 2.51625 39.2575 3.8125 38.875 C7.03946125 37.65275273 7.88936355 37.15212512 10 34.25 C11.4408079 29.56737433 11.72412098 25.94607514 10 21.3125 C7.12592697 17.98935305 4.0063801 16.77331578 0 15 C0 10.05 0 5.1 0 0 Z " fill="#054E97" transform="translate(102,49)"/>
<path d="M0 0 C10.89 0 21.78 0 33 0 C33 4.95 33 9.9 33 15 C27.06 15 21.12 15 15 15 C15 23.58 15 32.16 15 41 C20.94 41 26.88 41 33 41 C33 45.95 33 50.9 33 56 C27.06 56 21.12 56 15 56 C15 71.18 15 86.36 15 102 C10.05 102 5.1 102 0 102 C0 68.34 0 34.68 0 0 Z " fill="#EB7014" transform="translate(62,49)"/>
<path d="M0 0 C0.66 0.99 1.32 1.98 2 3 C2.99 3.33 3.98 3.66 5 4 C5.66 2.68 6.32 1.36 7 0 C7 4.95 7 9.9 7 15 C8.98 15.66 10.96 16.32 13 17 C16.70706942 20.29517281 18.82388982 22.20367615 19.3125 27.1875 C18.91694878 32.01322486 17.780498 34.06096117 15 38 C12.00607054 40.1518868 10.86092651 40 7 40 C7 45.28 7 50.56 7 56 C6.67 56 6.34 56 6 56 C6 52.04 6 48.08 6 44 C4.02 44.495 4.02 44.495 2 45 C1.67 49.29 1.34 53.58 1 58 C-4.61 58 -10.22 58 -16 58 C-16 72.52 -16 87.04 -16 102 C-16.66 102 -17.32 102 -18 102 C-18 86.82 -18 71.64 -18 56 C-12.06 56 -6.12 56 0 56 C0 51.05 0 46.1 0 41 C-5.94 41 -11.88 41 -18 41 C-18 32.42 -18 23.84 -18 15 C-12.06 15 -6.12 15 0 15 C0 10.05 0 5.1 0 0 Z " fill="#F8FAFA" transform="translate(95,49)"/>
<path d="M0 0 C10.89 0 21.78 0 33 0 C33 4.95 33 9.9 33 15 C27.06 15 21.12 15 15 15 C15 14.67 15 14.34 15 14 C20.61 14 26.22 14 32 14 C31.67 10.37 31.34 6.74 31 3 C21.1 3 11.2 3 1 3 C1 35.01 1 67.02 1 100 C4.96 100 8.92 100 13 100 C13.33 85.48 13.66 70.96 14 56 C14.33 56 14.66 56 15 56 C15 71.18 15 86.36 15 102 C10.05 102 5.1 102 0 102 C0 68.34 0 34.68 0 0 Z " fill="#D87931" transform="translate(62,49)"/>
<path d="M0 0 C0.33 0 0.66 0 1 0 C1 5.28 1 10.56 1 16 C-4.94 16 -10.88 16 -17 16 C-17 23.92 -17 31.84 -17 40 C-11.06 40 -5.12 40 1 40 C1 45.94 1 51.88 1 58 C-4.61 58 -10.22 58 -16 58 C-16 72.52 -16 87.04 -16 102 C-16.66 102 -17.32 102 -18 102 C-18 86.82 -18 71.64 -18 56 C-12.06 56 -6.12 56 0 56 C0 51.05 0 46.1 0 41 C-5.94 41 -11.88 41 -18 41 C-18 32.42 -18 23.84 -18 15 C-12.06 15 -6.12 15 0 15 C0 10.05 0 5.1 0 0 Z " fill="#FAD0AA" transform="translate(95,49)"/>
<path d="M0 0 C5.61 0 11.22 0 17 0 C17 4.95 17 9.9 17 15 C11.39 15 5.78 15 0 15 C0 14.34 0 13.68 0 13 C4.62 13 9.24 13 14 13 C13.979375 11.576875 13.95875 10.15375 13.9375 8.6875 C13.89418117 5.69850044 14.03929566 3.88211302 15 1 C10.05 1 5.1 1 0 1 C0 0.67 0 0.34 0 0 Z " fill="#D9752A" transform="translate(78,90)"/>
<path d="M0 0 C5.48505778 0 6.91677056 0.09014625 11.375 2.5 C12.68597656 3.19609375 12.68597656 3.19609375 14.0234375 3.90625 C14.67570312 4.2671875 15.32796875 4.628125 16 5 C15.401875 5.144375 14.80375 5.28875 14.1875 5.4375 C12.43849596 5.8872439 10.71322977 6.42892341 9 7 C8.34 6.67 7.68 6.34 7 6 C7 5.01 7 4.02 7 3 C5.02 2.34 3.04 1.68 1 1 C1 5.29 1 9.58 1 14 C2.65 14.33 4.3 14.66 6 15 C5.67 15.66 5.34 16.32 5 17 C2.525 16.01 2.525 16.01 0 15 C0 10.05 0 5.1 0 0 Z " fill="#17518C" transform="translate(102,49)"/>
<path d="M0 0 C0.66 0 1.32 0 2 0 C2 8.25 2 16.5 2 25 C1.34 24.67 0.68 24.34 0 24 C-1.17170926 18.60452441 -0.97080042 13.53935738 -0.5625 8.0625 C-0.51029297 7.28326172 -0.45808594 6.50402344 -0.40429688 5.70117188 C-0.27601936 3.80033228 -0.13892679 1.90009096 0 0 Z " fill="#E07223" transform="translate(75,65)"/>
<path d="M0 0 C0.66 0.66 1.32 1.32 2 2 C-0.69155504 9.06533197 -5.97467387 11.98311591 -12 16 C-12.66 15.34 -13.32 14.68 -14 14 C-13.11248047 13.48953125 -13.11248047 13.48953125 -12.20703125 12.96875 C-6.43831136 9.43035085 -3.05289398 6.04442325 0 0 Z " fill="#DDEFF7" transform="translate(134,134)"/>
<path d="M0 0 C2.4375 0.8125 2.4375 0.8125 5 2 C5.96070434 4.88211302 6.10581883 6.69850044 6.0625 9.6875 C6.05347656 10.49574219 6.04445313 11.30398437 6.03515625 12.13671875 C6.02355469 12.75160156 6.01195313 13.36648437 6 14 C5.67 14 5.34 14 5 14 C4.83564453 12.98679687 4.83564453 12.98679687 4.66796875 11.953125 C4.50941406 11.06109375 4.35085937 10.1690625 4.1875 9.25 C3.96126953 7.92742187 3.96126953 7.92742187 3.73046875 6.578125 C2.94585752 3.8089089 1.85404641 2.1740599 0 0 Z " fill="#3A6FA2" transform="translate(117,109)"/>
<path d="M0 0 C0.66 0.66 1.32 1.32 2 2 C1.34 3.98 0.68 5.96 0 8 C-0.66 8 -1.32 8 -2 8 C-2 6.02 -2 4.04 -2 2 C-1.34 2 -0.68 2 0 2 C0 1.34 0 0.68 0 0 Z " fill="#0D549D" transform="translate(132,103)"/>
<path d="M0 0 C1 4 1 4 1 7 C-0.65 7.66 -2.3 8.32 -4 9 C-2.68 6.03 -1.36 3.06 0 0 Z " fill="#18548D" transform="translate(122,123)"/>
</svg>
